<svg height="567pt" viewBox="-104 -17 567 567.99975" width="567pt" xmlns="http://www.w3.org/2000/svg"><path d="m131.523438 160.007812h69.945312c1.648438-7.535156 4.753906-14.671874 9.140625-21.015624-10.644531-9.875-24.644531-15.328126-39.160156-15.25-6.882813.03125-13.714844 1.136718-20.257813 3.285156-1.46875 12.917968-8.960937 24.382812-20.203125 30.910156.199219.746094.375 2.070312.535157 2.070312zm0 0"/><path d="m81.453125 137.152344c-14.800781 0-27.394531 10.355468-31.941406 22.855468h63.878906c-4.542969-12.5-17.140625-22.855468-31.9375-22.855468zm0 0"/><path d="m123.589844 142.121094c9.101562-6.210938 12.734375-17.867188 8.773437-28.148438-3.953125-10.28125-14.46875-16.488281-25.386719-14.996094-10.917968 1.496094-19.367187 10.304688-20.417968 21.269532 14.949218 1.515625 28.492187 9.511718 37.03125 21.875zm0 0"/><path d="m339.726562 141.027344c-.828124 1.5-1.738281 2.949218-2.722656 4.347656-4.683594 6.234375-10.882812 11.164062-18.011718 14.328125.03125.15625.058593.304687.089843.304687h33.800781c-2.039062-7.667968-6.691406-14.378906-13.15625-18.980468zm0 0"/><path d="m301.417969 130.023438c4.375 3.929687 8.128906 8.488281 11.148437 13.539062 4.085938-1.988281 7.640625-4.933594 10.359375-8.574219 3.871094-4.925781 5.421875-11.289062 4.25-17.441406-2.335937-10.980469-12.046875-18.824219-23.273437-18.796875-11.222656.023438-20.902344 7.90625-23.1875 18.898438 7.632812 2.757812 14.660156 6.957031 20.703125 12.375zm0 0"/><path d="m219.523438 160.007812h81.441406c-5.335938-16.25-22.414063-29.105468-42.015625-29.105468-18.519531 0-34.230469 12.855468-39.425781 29.105468zm0 0"/><path d="m56.570312 409.828125c16.457032-1.539063 31.394532-10.285156 40.792969-23.882813l69.910157-101.058593c-11.699219-12.171875-12.578126-31.125-2.042969-44.328125 10.53125-13.199219 29.207031-16.558594 43.679687-7.851563 14.46875 8.699219 20.253906 26.78125 13.519532 42.261719-6.726563 15.488281-23.886719 23.601562-40.125 18.960938l-70.546876 101.984374c-12.253906 17.808594-31.726562 29.328126-53.242187 31.488282l2.121094 18.847656h261.824219l30.097656-268.742188h-322.027344zm0 0"/><path d="m191.546875 277.722656c7.523437.019532 14.085937-5.109375 15.878906-12.421875 1.792969-7.308593-1.652343-14.890625-8.335937-18.351562-6.683594-3.460938-14.863282-1.894531-19.796875 3.785156-4.9375 5.683594-5.34375 14-.984375 20.132813l9.117187 6.304687c1.34375.363281 2.730469.546875 4.121094.550781zm0 0"/><path d="m64.835938 483.75h253.417968l2.246094-20h-257.90625zm0 0"/><path d="m107.183594 532.5h168.722656c19.058594 0 35.515625-13.75 40.027344-31.25h-248.773438c4.507813 17.5 20.964844 31.25 40.023438 31.25zm0 0"/><path d="m4.664062 321.820312c-11.355468 16.449219-13.167968 37.675782-4.773437 55.8125 8.320313-2.949218 17.546875-1.71875 24.800781 3.316407l10.28125 7.109375c.578125.402344 1.128906.832031 1.671875 1.265625l-10.976562-97.859375zm0 0"/><path d="m25.011719 402.453125-10.28125-7.113281c-4.542969-3.039063-10.679688-1.871094-13.789063 2.621094-3.105468 4.496093-2.03125 10.65625 2.414063 13.828124l10.28125 7.113282c2.523437 1.734375 5.703125 2.21875 8.632812 1.320312 2.921875-.90625 5.28125-3.09375 6.390625-5.949218 1.667969-4.308594.160156-9.203126-3.648437-11.820313zm0 0"/><path d="m52.703125 50c0 15.183594-12.3125 27.5-27.5 27.5s-27.5-12.316406-27.5-27.5c0-15.1875 12.3125-27.5 27.5-27.5s27.5 12.3125 27.5 27.5zm0 0"/><path d="m336.445312 27.5c0 15.183594-12.308593 27.5-27.5 27.5-15.183593 0-27.496093-12.316406-27.496093-27.5 0-15.1875 12.3125-27.5 27.496093-27.5 15.191407 0 27.5 12.3125 27.5 27.5zm0 0"/><path d="m243.949219 61.25c0 15.183594-12.308594 27.5-27.5 27.5-15.1875 0-27.5-12.316406-27.5-27.5 0-15.1875 12.3125-27.5 27.5-27.5 15.191406 0 27.5 12.3125 27.5 27.5zm0 0"/></svg>