<?xml version="1.0"?>
<svg xmlns="http://www.w3.org/2000/svg" viewBox="0 0 512 512" width="512" height="512"><g id="solid"><path d="M254.812,192,480,145.809v15.633L327.211,192ZM480,177.758V192H408.789Zm0-63.934v15.651L175.19,192H102.148ZM32,208H480v32H56a8,8,0,0,0-8,8V408H32Zm32,48H453.391L409.962,408H400V392a16.019,16.019,0,0,0-16-16H363.322a31.149,31.149,0,0,0,3.245-8h9.355a8,8,0,0,0,3.562-.836l16.078-8A8.006,8.006,0,0,0,400,352V334.559a23.926,23.926,0,0,0-21.711-23.883l-17.117-1.637-14.438-10.078a147.282,147.282,0,0,0-40.968-20.031A149.357,149.357,0,0,0,260.719,272c-1.528,0-3,.018-4.363.072-.125-.006-.23-.072-.356-.072-.171,0-.314.086-.482.1a150.146,150.146,0,0,0-80.885,26.934L167.492,304H135.844a51.911,51.911,0,0,0-37.032,15.723L94.383,324.3A51.335,51.335,0,0,0,80,360a8,8,0,0,0,8,8h29.512a31.111,31.111,0,0,0,3.244,8H96a16.019,16.019,0,0,0-16,16v16H64Zm32.906,96a35.479,35.479,0,0,1,9-16.6l4.4-4.543A35.816,35.816,0,0,1,135.844,320H170c.008,0,.015,0,.022,0s.011,0,.017,0H248v13.68L236.388,352H178.213a31.319,31.319,0,0,0-60.395,0Zm269.354,0a31.314,31.314,0,0,0-60.387,0H255.331l7.427-11.719A7.994,7.994,0,0,0,264,336V320h41.438a8.017,8.017,0,0,0,4.7-1.527L327.579,305.8c3.409,1.953,6.761,4.017,10,6.278l16.164,11.281a8.037,8.037,0,0,0,3.813,1.407L376.75,326.6a7.981,7.981,0,0,1,7.25,7.957v12.488L374.039,352Zm-63.424-48H264V288.125a133.405,133.405,0,0,1,37,6.078c3.482,1.074,6.9,2.313,10.272,3.667ZM248,304H197.245A133.937,133.937,0,0,1,248,288.64ZM132.508,360.492A15.508,15.508,0,1,1,148.016,376,15.52,15.52,0,0,1,132.508,360.492ZM178.52,368H305.566a31.113,31.113,0,0,0,3.245,8H175.275A31.149,31.149,0,0,0,178.52,368Zm142.042-7.508A15.5,15.5,0,1,1,336.062,376,15.519,15.519,0,0,1,320.562,360.492ZM96,408V392H384v16Zm384,0H426.609l43.422-152H480Z"/></g></svg>
