<?xml version="1.0" encoding="iso-8859-1"?>
<!-- Generator: Adobe Illustrator 22.1.0, SVG Export Plug-In . SVG Version: 6.00 Build 0)  -->
<svg xmlns="http://www.w3.org/2000/svg" xmlns:xlink="http://www.w3.org/1999/xlink" version="1.1" id="Layer_1_1_" x="0px" y="0px" viewBox="0 0 64 64" style="enable-background:new 0 0 64 64;" xml:space="preserve" width="512" height="512">
<g>
	<path d="M5,5h2v4h2V5h2v4h2V5h2v4h1c0.552,0,1-0.449,1-1V4c0-0.551-0.448-1-1-1H4C3.448,3,3,3.449,3,4v4c0,0.551,0.448,1,1,1h1V5z"/>
	<rect x="29" y="5" width="2" height="3"/>
	<path d="M26,8h1V5h-1c-1.654,0-3,1.346-3,3v5h3V8z"/>
	<rect x="33" y="5" width="2" height="3"/>
	<rect x="37" y="5" width="2" height="3"/>
	<path d="M42,13h3V8c0-1.654-1.346-3-3-3h-1v3h1V13z"/>
	<polygon points="5,18.382 15,13.382 15,11 5,11  "/>
	<path d="M50,39c-6.065,0-11,4.935-11,11s4.935,11,11,11s11-4.935,11-11S56.065,39,50,39z M50,49c2.206,0,4,1.794,4,4   c0,1.858-1.279,3.411-3,3.858V59h-2v-2.142c-1.721-0.447-3-2-3-3.858h2c0,1.103,0.897,2,2,2s2-0.897,2-2s-0.897-2-2-2   c-2.206,0-4-1.794-4-4c0-1.858,1.279-3.411,3-3.858V41h2v2.142c1.721,0.447,3,2,3,3.858h-2c0-1.103-0.897-2-2-2s-2,0.897-2,2   S48.897,49,50,49z"/>
	<path d="M37.045,50.892C33.984,53.514,30.085,55,26,55c-4.134,0-8.127-1.517-11.242-4.27l1.324-1.499   C18.832,51.662,22.354,53,26,53c4.273,0,8.325-1.827,11.171-5.007c0.426-2.729,1.692-5.179,3.539-7.07C40.9,39.965,41,38.983,41,38   c0-3.646-1.339-7.168-3.769-9.918l1.498-1.324C41.483,29.873,43,33.866,43,38c0,0.366-0.032,0.731-0.055,1.097   c1.226-0.796,2.593-1.386,4.055-1.733V16c0-0.551-0.448-1-1-1H16.236L5,20.618V56c0,2.757,2.243,5,5,5h32   c0.319,0,0.631-0.041,0.94-0.1C39.606,58.734,37.332,55.085,37.045,50.892z M26.029,49C21.575,49,18,45.425,18,41.03   c0-1.519,0.431-2.999,1.246-4.279L26,26.137l6.754,10.613C33.569,38.031,34,39.511,34,41.03C34,45.425,30.425,49,26.029,49z M9,38   c0-9.374,7.626-17,17-17c4.134,0,8.127,1.517,11.242,4.27l-1.324,1.499C33.168,24.338,29.646,23,26,23c-8.271,0-15,6.729-15,15   c0,3.646,1.339,7.168,3.769,9.918l-1.498,1.324C10.517,46.127,9,42.134,9,38z"/>
	<path d="M26,29.863l-5.066,7.961C20.323,38.784,20,39.892,20,41.03c0,3.292,2.679,5.97,5.971,5.97C29.321,47,32,44.322,32,41.03   c0-1.138-0.323-2.246-0.934-3.205L26,29.863z"/>
</g>
</svg>
