<svg xmlns="http://www.w3.org/2000/svg" width="32" height="32.017" viewBox="0 0 32 32.017">
  <path id="Path_58" data-name="Path 58" d="M19.133,3.146c-6.554,0-12.777-.583-15.154,5.516C3,11.181,3.14,14.453,3.14,19.137c0,4.111-.132,7.974.839,10.473,2.372,6.1,8.645,5.518,15.15,5.518,6.276,0,12.746.653,15.152-5.518.984-2.544.839-5.767.839-10.473,0-6.247.345-10.28-2.686-13.308-3.068-3.068-7.218-2.683-13.309-2.683ZM17.7,6.028c13.67-.022,15.41-1.541,14.45,19.566-.341,7.465-6.027,6.646-13.015,6.646-12.743,0-13.109-.365-13.109-13.109C6.026,6.237,7.037,6.035,17.7,6.024Zm9.97,2.654A1.918,1.918,0,1,0,29.589,10.6,1.919,1.919,0,0,0,27.671,8.682Zm-8.537,2.243a8.211,8.211,0,1,0,8.21,8.212,8.213,8.213,0,0,0-8.21-8.212Zm0,2.882c7.048,0,7.057,10.661,0,10.661S12.076,13.807,19.133,13.807Z" transform="translate(-3.133 -3.13)" fill="#000"/>
</svg>
