<svg xmlns="http://www.w3.org/2000/svg" xmlns:xlink="http://www.w3.org/1999/xlink" width="24" height="24" viewBox="0 0 24 24">
  <defs>
    <style>.a{fill:url(#a);}.b{fill:#fff;}</style>
    <linearGradient id="a" x1="-1.539" y1="-3.018" x2="-1.1" y2="-3.49" gradientUnits="objectBoundingBox">
      <stop offset="0" stop-color="#fd5"/><stop offset="0.5" stop-color="#ff543e"/><stop offset="1" stop-color="#c837ab"/>
    </linearGradient>
  </defs>
    <g transform="translate(0.07 0.038)">
      <path class="a" d="M1.5,1.628C-.385,3.581,0,5.655,0,11.958c0,5.234-.913,10.481,3.867,11.716,1.493.384,14.719.384,16.209,0a5.139,5.139,0,0,0,3.831-4.942c.031-.393.031-13.145,0-13.545A5.147,5.147,0,0,0,19.393.11,21.533,21.533,0,0,0,15.864,0C5.72,0,3.5-.447,1.5,1.628Z"/>
      <path class="b" d="M12,3.139c-3.631,0-7.079-.323-8.4,3.057-.544,1.4-.465,3.209-.465,5.8,0,2.278-.073,4.419.465,5.8,1.314,3.382,4.79,3.058,8.394,3.058,3.477,0,7.062.362,8.4-3.058.545-1.41.465-3.2.465-5.8,0-3.462.191-5.7-1.488-7.375-1.7-1.7-4-1.487-7.374-1.487Zm-.794,1.6c7.574-.012,8.538-.854,8.006,10.843-.189,4.137-3.339,3.683-7.211,3.683-7.06,0-7.263-.2-7.263-7.265,0-7.145.56-7.257,6.468-7.263Zm5.524,1.471A1.063,1.063,0,1,0,17.791,7.27,1.063,1.063,0,0,0,16.728,6.207ZM12,7.45A4.55,4.55,0,1,0,16.547,12,4.551,4.551,0,0,0,12,7.45Zm0,1.6c3.9,0,3.91,5.908,0,5.908S8.088,9.047,12,9.047Z"/>
    </g>
</svg>
