<svg xmlns="http://www.w3.org/2000/svg" width="12.001" height="24" viewBox="0 0 23.999 24">
  <g transform="translate(-0.008)">
    <path class="a" d="M22.4,5.977a11.95,11.95,0,0,0-4.367-4.367A11.737,11.737,0,0,0,12.008,0,11.738,11.738,0,0,0,5.985,1.609,11.945,11.945,0,0,0,1.618,5.977,11.736,11.736,0,0,0,.008,12,11.632,11.632,0,0,0,1.992,18.61,11.959,11.959,0,0,0,7.2,23a10.352,10.352,0,0,1,.2-2.766L8.946,13.7A4.167,4.167,0,0,1,8.555,11.8a3.579,3.579,0,0,1,.672-2.219,2,2,0,0,1,1.641-.891,1.466,1.466,0,0,1,1.2.516,1.98,1.98,0,0,1,.422,1.3,4.852,4.852,0,0,1-.18,1.18q-.18.7-.469,1.61t-.414,1.461a1.774,1.774,0,0,0,.359,1.633,1.911,1.911,0,0,0,1.531.68A3.143,3.143,0,0,0,16.063,15.2a8.916,8.916,0,0,0,1.07-4.516A4.43,4.43,0,0,0,15.812,7.36a5.063,5.063,0,0,0-3.68-1.282,5.689,5.689,0,0,0-5.906,5.75,3.554,3.554,0,0,0,.8,2.359.713.713,0,0,1,.172.672q-.031.094-.125.469c-.062.25-.1.412-.125.484q-.125.5-.594.312a3.525,3.525,0,0,1-1.828-1.734A6.248,6.248,0,0,1,3.9,11.532a6.817,6.817,0,0,1,.336-2.094A7.141,7.141,0,0,1,5.281,7.414a8.222,8.222,0,0,1,1.7-1.727A7.991,7.991,0,0,1,9.4,4.485a10.032,10.032,0,0,1,3.063-.453,8.04,8.04,0,0,1,3.984.984,7.033,7.033,0,0,1,2.7,2.547,6.43,6.43,0,0,1,.93,3.344,10.513,10.513,0,0,1-.812,4.219,6.927,6.927,0,0,1-2.3,2.945,5.625,5.625,0,0,1-3.375,1.071A3.707,3.707,0,0,1,11.8,18.7a2.605,2.605,0,0,1-1.14-1.055q-.7,2.765-.844,3.3A9.611,9.611,0,0,1,8.6,23.5a12,12,0,0,0,9.43-1.11A11.943,11.943,0,0,0,22.4,18.024,11.74,11.74,0,0,0,24.007,12,11.735,11.735,0,0,0,22.4,5.977Z" transform="translate(0 0)" fill="#c8232c"/>
  </g></svg>
