<svg xmlns="http://www.w3.org/2000/svg" width="31.997" height="32" viewBox="0 0 31.997 32" fill="#000">
    <g id="facebook_2_" data-name="facebook (2)" transform="translate(-30.044 0)">
        <g id="Group_69" data-name="Group 69" transform="translate(35.994 0)">
            <path id="Path_70" data-name="Path 70" d="M111.6,16.973h-3a.764.764,0,0,1-.764-.764V13.725a.545.545,0,0,1,1.091,0v2.156h2.344V10.3a.692.692,0,0,1,.691-.691h1.142V7.261h-1.142a.692.692,0,0,1-.691-.691V5.8a2.371,2.371,0,0,1,2.369-2.369h.517V1.091h-.517A4.719,4.719,0,0,0,108.929,5.8V6.57a.692.692,0,0,1-.691.691H107.1V9.605h1.142a.692.692,0,0,1,.691.691v.683a.545.545,0,0,1-1.091,0V10.7h-1.069A.764.764,0,0,1,106,9.932v-3a.765.765,0,0,1,.764-.764h1.069V5.8a5.811,5.811,0,0,1,5.8-5.8h.844a.764.764,0,0,1,.764.764v3a.765.765,0,0,1-.764.764h-.844A1.279,1.279,0,0,0,112.364,5.8V6.17h1.069a.764.764,0,0,1,.764.764v3a.765.765,0,0,1-.764.764h-1.069v5.513a.765.765,0,0,1-.764.764Z" transform="translate(-106.005 0)"/>
        </g>
        <g id="Group_70" data-name="Group 70" transform="translate(47.627 5.321)">
            <path id="Path_71" data-name="Path 71" d="M258.49,87.642h-8.312a3.055,3.055,0,0,1-3.051-3.051V76.279a3.055,3.055,0,0,1,3.051-3.051h.912a.545.545,0,1,1,0,1.091h-.912a1.963,1.963,0,0,0-1.96,1.96v8.312a1.962,1.962,0,0,0,1.96,1.96h8.312a1.963,1.963,0,0,0,1.96-1.96V76.279a1.963,1.963,0,0,0-1.96-1.96h-4.646a.545.545,0,1,1,0-1.091h4.646a3.055,3.055,0,0,1,3.051,3.051v8.312a3.055,3.055,0,0,1-3.051,3.051Z" transform="translate(-247.127 -73.228)"/>
        </g>
        <g id="Group_71" data-name="Group 71" transform="translate(51.641 9.336)">
            <path id="Path_72" data-name="Path 72" d="M305.568,134.861a3.193,3.193,0,1,1,3.193-3.192A3.2,3.2,0,0,1,305.568,134.861Zm0-5.294a2.1,2.1,0,1,0,2.1,2.1A2.1,2.1,0,0,0,305.568,129.567Z" transform="translate(-302.375 -128.476)"/>
        </g>
        <g id="Group_72" data-name="Group 72" transform="translate(57.806 8.014)">
            <circle id="Ellipse_18" data-name="Ellipse 18" cx="0.771" cy="0.771" r="0.771"/>
        </g>
        <g id="Group_73" data-name="Group 73" transform="translate(30.044 19.176)">
            <path id="Path_73" data-name="Path 73" d="M42.595,276.72a7.09,7.09,0,0,1-6.794-5.087,4.091,4.091,0,0,1-1.989-2.328,3.007,3.007,0,0,1-1.556-.634.691.691,0,0,1,.139-1.167l.085-.039a3.014,3.014,0,0,1-.38-.58.691.691,0,0,1,.619-1h1.466a4.1,4.1,0,0,1,7.549,1.373,5.911,5.911,0,0,0,3.081-1.692,6,6,0,0,0,.755-.954.76.76,0,0,1,.677-.351.768.768,0,0,1,.646.414,7.054,7.054,0,0,1,.7,2.159.545.545,0,0,1-1.078.167,5.974,5.974,0,0,0-.363-1.322,7.077,7.077,0,0,1-4.756,2.738.619.619,0,0,1-.694-.582,3.01,3.01,0,0,0-5.674-1.231.69.69,0,0,1-.612.372h-.9a1.84,1.84,0,0,0,.15.119.618.618,0,0,1-.088,1.059,1.941,1.941,0,0,0,.531.075h0a.69.69,0,0,1,.667.521,3,3,0,0,0,1.62,1.965.765.765,0,0,1,.41.492,5.99,5.99,0,0,0,10.675,1.886,7.073,7.073,0,0,1-2.2.105.653.653,0,0,1-.4-1.1l0,0a6,6,0,0,0,1.462-2.521.545.545,0,1,1,1.049.3,7.073,7.073,0,0,1-1.125,2.273,5.966,5.966,0,0,0,1.669-.3.764.764,0,0,1,.921,1.078,7.064,7.064,0,0,1-6.275,3.8Z" transform="translate(-31.994 -263.896)"/>
        </g>
    </g>
</svg>
