<?xml version="1.0"?>
<svg xmlns="http://www.w3.org/2000/svg" id="Solid" viewBox="0 0 512 512" width="512" height="512"><rect x="224" y="416" width="64" height="16"/><path d="M357.674,205.653A8.009,8.009,0,0,0,352,192h-8v16h8A7.989,7.989,0,0,0,357.674,205.653Z"/><rect x="240" y="448" width="32" height="32"/><path d="M288,240a8.009,8.009,0,0,0,8-8V200a8,8,0,0,0-16,0v32A8.009,8.009,0,0,0,288,240Z"/><path d="M308.687,368,408,268.686V163.314L308.687,64H203.314L104,163.314V268.686L203.314,368ZM328,216V184a8,8,0,0,1,8-8h16a24,24,0,1,1,0,48h-8v24a8,8,0,0,1-16,0Zm-64-16a24,24,0,0,1,48,0v32a24,24,0,0,1-48,0Zm-104,8a24,24,0,1,1-24,24,8,8,0,0,1,16,0,8,8,0,1,0,8-8,24,24,0,1,1,24-24,8,8,0,0,1-16,0,8,8,0,1,0-8,8Zm40-24a8,8,0,0,1,8-8h32a8,8,0,0,1,0,16h-8v56a8,8,0,0,1-16,0V192h-8A8,8,0,0,1,200,184Z"/><path d="M324.686,400,440,284.686V147.314L324.686,32H187.314L72,147.314V284.686L187.314,400ZM88,272V160a8,8,0,0,1,2.343-5.657l104-104A8,8,0,0,1,200,48H312a8,8,0,0,1,5.657,2.343l104,104A8,8,0,0,1,424,160V272a8,8,0,0,1-2.343,5.657l-104,104A8,8,0,0,1,312,384H200a8,8,0,0,1-5.657-2.343l-104-104A8,8,0,0,1,88,272Z"/></svg>
