<svg id="sunbeams" xmlns="http://www.w3.org/2000/svg" width="32" height="32" viewBox="0 0 32 32">
  <g id="Group_15" data-name="Group 15">
    <path id="Path_41" data-name="Path 41"  d="M19.284,11.269A8.016,8.016,0,1,0,27.3,19.285,8.024,8.024,0,0,0,19.284,11.269Z" transform="translate(-3.284 -3.284)" fill="#000" />
    <g id="Group_14" data-name="Group 14">
      <g id="Group_6" data-name="Group 6" transform="translate(14.436)">
        <path id="Path_42" data-name="Path 42" d="M21.937,5.629a1.564,1.564,0,0,1-1.564-1.563v-2.5a1.564,1.564,0,0,1,3.128,0v2.5A1.564,1.564,0,0,1,21.937,5.629Z" transform="translate(-20.373)" fill="#000"/>
      </g>
      <g id="Group_7" data-name="Group 7" transform="translate(14.436 26.37)">
        <path id="Path_43" data-name="Path 43" d="M21.937,37.215a1.564,1.564,0,0,0-1.564,1.564v2.5a1.564,1.564,0,1,0,3.128,0v-2.5A1.564,1.564,0,0,0,21.937,37.215Z" transform="translate(-20.373 -37.215)" fill="#000"/>
      </g>
      <g id="Group_8" data-name="Group 8" transform="translate(22.875 4.228)">
        <path id="Path_44" data-name="Path 44" d="M32.74,10.406a1.565,1.565,0,0,1,0-2.212l1.769-1.769a1.564,1.564,0,1,1,2.212,2.212l-1.769,1.769A1.564,1.564,0,0,1,32.74,10.406Z" transform="translate(-32.282 -5.967)" fill="#000"/>
      </g>
      <g id="Group_9" data-name="Group 9" transform="translate(4.228 22.875)">
        <path id="Path_45" data-name="Path 45" d="M10.406,32.741a1.562,1.562,0,0,0-2.212,0L6.425,34.51a1.564,1.564,0,1,0,2.212,2.212l1.769-1.77A1.562,1.562,0,0,0,10.406,32.741Z" transform="translate(-5.967 -32.283)" fill="#000"/>
      </g>
      <g id="Group_10" data-name="Group 10" transform="translate(26.37 14.436)">
        <path id="Path_46" data-name="Path 46" d="M37.215,21.937a1.564,1.564,0,0,1,1.564-1.564h2.5a1.564,1.564,0,1,1,0,3.127h-2.5A1.563,1.563,0,0,1,37.215,21.937Z" transform="translate(-37.215 -20.373)" fill="#000"/>
      </g>
      <g id="Group_11" data-name="Group 11" transform="translate(0 14.436)">
        <path id="Path_47" data-name="Path 47" d="M5.629,21.937a1.564,1.564,0,0,0-1.564-1.564h-2.5a1.564,1.564,0,1,0,0,3.127h2.5A1.563,1.563,0,0,0,5.629,21.937Z" transform="translate(0 -20.373)" fill="#000"/>
      </g>
      <g id="Group_12" data-name="Group 12" transform="translate(22.874 22.876)">
        <path id="Path_48" data-name="Path 48" d="M32.74,32.742a1.565,1.565,0,0,1,2.212,0l1.769,1.769a1.564,1.564,0,1,1-2.212,2.211L32.74,34.953A1.563,1.563,0,0,1,32.74,32.742Z" transform="translate(-32.282 -32.284)" fill="#000"/>
      </g>
      <g id="Group_13" data-name="Group 13" transform="translate(4.228 4.229)">
        <path id="Path_49" data-name="Path 49" d="M10.405,10.406a1.564,1.564,0,0,0,0-2.212L8.636,6.426A1.564,1.564,0,0,0,6.425,8.636l1.769,1.769A1.562,1.562,0,0,0,10.405,10.406Z" transform="translate(-5.967 -5.967)" fill="#000"/>
      </g>
    </g>
  </g>
</svg>
